<svg>
  <symbol id="file-play" viewBox="0 0 16 16" fill="currentColor" xmlns="http://www.w3.org/2000/svg">
    <path fill-rule="evenodd"
          d="M4 0h8a2 2 0 0 1 2 2v12a2 2 0 0 1-2 2H4a2 2 0 0 1-2-2V2a2 2 0 0 1 2-2zm0 1a1 1 0 0 0-1 1v12a1 1 0 0 0 1 1h8a1 1 0 0 0 1-1V2a1 1 0 0 0-1-1H4z"/>
    <path d="M6 10.117V5.883a.5.5 0 0 1 .757-.429l3.528 2.117a.5.5 0 0 1 0 .858l-3.528 2.117a.5.5 0 0 1-.757-.43z"/>
  </symbol>
  <symbol id="git-file" viewBox="0 0 128 128" fill="currentColor" xmlns="http://www.w3.org/2000/svg">
    <path
        fill-rule="evenodd"
        d="M63.996,1.333C28.656,1.333,0,30.099,0,65.591    c0,28.384,18.336,52.467,43.772,60.965c3.2,0.59,4.368-1.394,4.368-3.096c0-1.526-0.056-5.566-0.088-10.927    c-17.804,3.883-21.56-8.614-21.56-8.614c-2.908-7.421-7.104-9.397-7.104-9.397c-5.812-3.988,0.44-3.907,0.44-3.907    c6.42,0.454,9.8,6.622,9.8,6.622c5.712,9.819,14.98,6.984,18.628,5.337c0.58-4.152,2.236-6.984,4.064-8.59    c-14.212-1.622-29.152-7.132-29.152-31.753c0-7.016,2.492-12.75,6.588-17.244c-0.66-1.626-2.856-8.156,0.624-17.003    c0,0,5.376-1.727,17.6,6.586c5.108-1.426,10.58-2.136,16.024-2.165c5.436,0.028,10.912,0.739,16.024,2.165    c12.216-8.313,17.58-6.586,17.58-6.586c3.492,8.847,1.296,15.377,0.636,17.003c4.104,4.494,6.58,10.228,6.58,17.244    c0,24.681-14.964,30.115-29.22,31.705c2.296,1.984,4.344,5.903,4.344,11.899c0,8.59-0.08,15.517-0.08,17.626    c0,1.719,1.152,3.719,4.4,3.088C109.68,118.034,128,93.967,128,65.591C128,30.099,99.344,1.333,63.996,1.333"/>
  </symbol>
  <symbol id="react-file" viewBox="0 0 24 24" fill="currentColor" xmlns="http://www.w3.org/2000/svg">
    <path fill="none" d="M0 0h24v24H0z"/>
    <path
        d="M14.448 16.24a21.877 21.877 0 0 1-1.747 2.175c1.672 1.623 3.228 2.383 4.09 1.884.864-.498.983-2.225.414-4.484-.853.19-1.78.334-2.757.425zm-1.31.087a27.512 27.512 0 0 1-2.276 0c.377.492.758.948 1.138 1.364.38-.416.76-.872 1.138-1.364zm5.04-7.894c2.665.764 4.405 2.034 4.405 3.567 0 1.533-1.74 2.803-4.405 3.567.67 2.69.441 4.832-.886 5.598-1.328.767-3.298-.105-5.292-2.03-1.994 1.925-3.964 2.797-5.292 2.03-1.327-.766-1.557-2.908-.886-5.598-2.665-.764-4.405-2.034-4.405-3.567 0-1.533 1.74-2.803 4.405-3.567-.67-2.69-.441-4.832.886-5.598 1.328-.767 3.298.105 5.292 2.03 1.994-1.925 3.964-2.797 5.292-2.03 1.327.766 1.557 2.908.886 5.598zm-.973-.248c.57-2.26.45-3.986-.413-4.484-.863-.499-2.419.261-4.09 1.884.591.643 1.179 1.374 1.746 2.175.978.09 1.904.234 2.757.425zm-10.41 7.63c-.57 2.26-.45 3.986.413 4.484.863.499 2.419-.261 4.09-1.884a21.877 21.877 0 0 1-1.746-2.175 21.877 21.877 0 0 1-2.757-.425zm4.067-8.142a27.512 27.512 0 0 1 2.276 0A20.523 20.523 0 0 0 12 6.31c-.38.416-.76.872-1.138 1.364zm-1.31.087A21.877 21.877 0 0 1 11.3 5.585C9.627 3.962 8.07 3.202 7.209 3.701c-.864.498-.983 2.225-.414 4.484.853-.19 1.78-.334 2.757-.425zm4.342 7.52A25.368 25.368 0 0 0 15.787 12a25.368 25.368 0 0 0-1.893-3.28 25.368 25.368 0 0 0-3.788 0A25.368 25.368 0 0 0 8.213 12a25.368 25.368 0 0 0 1.893 3.28 25.368 25.368 0 0 0 3.788 0zm1.284-.131c.615-.08 1.2-.183 1.75-.304a20.523 20.523 0 0 0-.612-1.667 27.512 27.512 0 0 1-1.138 1.97zM8.822 8.85c-.615.08-1.2.183-1.75.304.17.536.374 1.094.612 1.667a27.512 27.512 0 0 1 1.138-1.97zm-1.75 5.994c.55.121 1.135.223 1.75.304a27.512 27.512 0 0 1-1.138-1.97c-.238.572-.442 1.13-.612 1.666zm-.978-.245c.261-.834.6-1.708 1.01-2.6-.41-.892-.749-1.766-1.01-2.6-2.242.637-3.677 1.604-3.677 2.6s1.435 1.963 3.677 2.6zm10.834-5.445c-.55-.121-1.135-.223-1.75-.304a27.511 27.511 0 0 1 1.138 1.97c.238-.572.442-1.13.612-1.666zm.978.245c-.261.834-.6 1.708-1.01 2.6.41.892.749 1.766 1.01 2.6 2.242-.637 3.677-1.604 3.677-2.6s-1.435-1.963-3.677-2.6zM12 13.88a1.88 1.88 0 1 1 0-3.76 1.88 1.88 0 0 1 0 3.76z"/>
  </symbol>
  <symbol id="bi-trash" viewBox="0 0 16 16" fill="currentColor" xmlns="http://www.w3.org/2000/svg">
    <path
        d="M5.5 5.5A.5.5 0 0 1 6 6v6a.5.5 0 0 1-1 0V6a.5.5 0 0 1 .5-.5zm2.5 0a.5.5 0 0 1 .5.5v6a.5.5 0 0 1-1 0V6a.5.5 0 0 1 .5-.5zm3 .5a.5.5 0 0 0-1 0v6a.5.5 0 0 0 1 0V6z"/>
    <path
        fill-rule="evenodd"
        d="M14.5 3a1 1 0 0 1-1 1H13v9a2 2 0 0 1-2 2H5a2 2 0 0 1-2-2V4h-.5a1 1 0 0 1-1-1V2a1 1 0 0 1 1-1H6a1 1 0 0 1 1-1h2a1 1 0 0 1 1 1h3.5a1 1 0 0 1 1 1v1zM4.118 4L4 4.059V13a1 1 0 0 0 1 1h6a1 1 0 0 0 1-1V4.059L11.882 4H4.118zM2.5 3V2h11v1h-11z"
    />
  </symbol>

</svg>